<svg xmlns="http://www.w3.org/2000/svg" xmlns:xlink="http://www.w3.org/1999/xlink" width="500" zoomAndPan="magnify" viewBox="0 0 375 374.999991" height="500" preserveAspectRatio="xMidYMid meet" version="1.0"><defs><clipPath id="417810fa47"><path d="M 165 126 L 251.429688 126 L 251.429688 262 L 165 262 Z M 165 126 " clip-rule="nonzero"/></clipPath><clipPath id="a6d88e8e7c"><path d="M 123.929688 142 L 249 142 L 249 232 L 123.929688 232 Z M 123.929688 142 " clip-rule="nonzero"/></clipPath></defs><path fill="#ffc145" d="M 213.046875 151.261719 C 209.890625 155.660156 204.800781 158.128906 200.148438 160.65625 C 197.625 161.96875 195.101562 163.289062 192.625 164.699219 C 190.503906 165.835938 188.179688 168.136719 185.621094 167.03125 C 184.792969 167.398438 183.882812 167.570312 182.972656 167.570312 C 182.511719 167.570312 182.050781 167.527344 181.601562 167.445312 C 179.195312 167.007812 176.960938 165.652344 175.554688 163.644531 C 174.265625 165.699219 170.820312 165.242188 170.140625 162.910156 C 169.09375 159.75 169.632812 156.363281 170.785156 153.328125 C 172.203125 149.722656 174.023438 145.863281 177.398438 143.703125 C 181.027344 141.363281 185.242188 140.992188 188.351562 144.40625 C 188.894531 141.613281 189.585938 138.730469 191.253906 136.398438 C 193.984375 132.597656 198.996094 129.253906 203.796875 130.898438 C 209.167969 132.988281 211.457031 139.007812 213.117188 144.070312 C 213.808594 146.425781 214.613281 149.070312 213.046875 151.261719 Z M 213.046875 151.261719 " fill-opacity="1" fill-rule="nonzero"/><path fill="#6bca22" d="M 225.636719 135.007812 C 225.589844 135.421875 225.535156 135.835938 225.441406 136.25 C 225.28125 136.972656 225.085938 137.699219 224.878906 138.398438 C 224.75 138.8125 224.867188 139.246094 225.121094 139.582031 C 225.074219 139.660156 225.027344 139.742188 224.96875 139.832031 C 224.832031 140.027344 224.703125 140.222656 224.554688 140.40625 C 224.382812 140.625 224.210938 140.84375 224.023438 141.050781 C 223.609375 141.5 223.160156 141.914062 222.699219 142.316406 C 222.585938 142.417969 222.46875 142.519531 222.34375 142.613281 C 222.34375 142.613281 222.332031 142.613281 222.332031 142.625 C 221.699219 142.980469 221.480469 143.808594 221.835938 144.429688 C 221.976562 144.667969 222.171875 144.839844 222.414062 144.957031 C 222.007812 145.164062 221.570312 145.277344 221.085938 145.277344 C 220.671875 145.277344 220.210938 145.1875 219.730469 145.003906 C 218.667969 144.566406 217.941406 143.566406 217.691406 142.464844 C 217.113281 145.542969 212.519531 145.726562 211.746094 142.683594 C 211.125 140.191406 210.515625 137.6875 209.855469 135.195312 C 207.839844 135.390625 206.183594 133.664062 205.847656 131.78125 C 203.578125 131.484375 201.230469 131.105469 199.226562 129.921875 C 196.046875 133.125 192.855469 137.125 188.316406 138.292969 C 186.566406 138.730469 184.5625 138.054688 183.652344 136.445312 C 182.523438 134.46875 183.296875 131.988281 184.160156 130.058594 C 185.070312 128.199219 186.242188 126.5 187.40625 124.789062 C 187.625 124.9375 187.878906 125.027344 188.15625 125.027344 C 188.882812 125.027344 189.492188 124.453125 189.492188 123.71875 C 189.492188 123.257812 189.25 122.824219 188.871094 122.59375 C 189.355469 121.835938 189.828125 121.066406 190.242188 120.273438 C 190.355469 120.054688 190.472656 119.824219 190.574219 119.585938 C 190.714844 119.628906 190.863281 119.652344 191 119.652344 C 191.472656 119.652344 191.921875 119.402344 192.175781 118.964844 C 192.542969 118.320312 192.832031 117.644531 193.132812 116.976562 C 193.203125 116.839844 193.269531 116.710938 193.351562 116.574219 C 193.410156 116.496094 193.464844 116.414062 193.523438 116.34375 C 193.558594 116.3125 193.59375 116.265625 193.640625 116.230469 C 193.660156 116.207031 193.695312 116.183594 193.71875 116.160156 C 193.730469 116.160156 193.742188 116.160156 193.765625 116.160156 C 193.8125 116.160156 193.871094 116.160156 193.914062 116.160156 C 193.996094 116.171875 194.066406 116.171875 194.144531 116.183594 C 194.191406 116.195312 194.226562 116.207031 194.273438 116.21875 C 194.339844 116.242188 194.421875 116.277344 194.492188 116.300781 C 194.640625 116.367188 194.789062 116.460938 194.929688 116.539062 C 195.171875 116.703125 195.414062 116.875 195.644531 117.046875 C 195.792969 117.160156 195.941406 117.277344 196.09375 117.378906 C 196.347656 117.574219 196.621094 117.78125 196.910156 117.917969 C 197.40625 118.160156 197.933594 118.285156 198.464844 118.101562 C 198.59375 118.058594 198.695312 118.011719 198.800781 117.941406 C 199.929688 117.78125 201.078125 118.125 202 118.78125 C 202.289062 118.597656 202.601562 118.390625 202.945312 118.171875 C 203.292969 119.078125 203.566406 120.019531 203.84375 120.949219 C 203.902344 121.191406 203.960938 121.421875 204.015625 121.664062 C 204.097656 122.007812 204.132812 122.386719 204.304688 122.707031 C 204.5 123.074219 204.824219 123.339844 205.238281 123.433594 C 205.320312 123.445312 205.410156 123.453125 205.492188 123.453125 C 205.800781 123.453125 206.125 123.351562 206.355469 123.132812 C 206.472656 123.03125 206.574219 122.925781 206.667969 122.800781 C 206.769531 122.652344 206.839844 122.5 206.910156 122.328125 C 206.953125 122.214844 207 122.109375 207.035156 121.996094 C 207.128906 121.765625 207.207031 121.523438 207.3125 121.296875 C 207.335938 121.238281 207.371094 121.179688 207.402344 121.125 C 207.472656 121.019531 207.542969 120.917969 207.609375 120.8125 C 207.667969 120.746094 207.726562 120.6875 207.785156 120.628906 C 207.886719 120.539062 207.992188 120.445312 208.09375 120.367188 C 208.300781 120.214844 208.507812 120.078125 208.726562 119.953125 C 208.992188 119.800781 209.269531 119.675781 209.546875 119.550781 C 210.074219 119.34375 210.617188 119.171875 211.171875 119.019531 C 211.757812 118.871094 212.34375 118.734375 212.945312 118.609375 C 213.21875 118.550781 213.496094 118.480469 213.785156 118.414062 C 214.128906 118.332031 214.5 118.242188 214.832031 118.113281 C 215.824219 118.847656 216.375 120.191406 215.996094 121.398438 C 215.652344 122.363281 215.109375 123.25 214.730469 124.203125 C 214.765625 124.234375 214.796875 124.257812 214.832031 124.292969 C 215.304688 123.925781 215.777344 123.683594 216.25 123.546875 C 216.15625 123.671875 216.078125 123.800781 215.984375 123.914062 C 215.789062 124.203125 215.675781 124.523438 215.707031 124.867188 C 215.742188 125.222656 215.925781 125.546875 216.214844 125.761719 C 216.445312 125.949219 216.734375 126.039062 217.035156 126.039062 C 217.078125 126.039062 217.125 126.039062 217.183594 126.027344 C 217.515625 125.992188 217.886719 125.808594 218.082031 125.523438 C 218.3125 125.1875 218.542969 124.867188 218.785156 124.535156 C 218.921875 124.441406 219.050781 124.316406 219.1875 124.222656 C 219.269531 124.179688 219.335938 124.121094 219.417969 124.074219 C 220.453125 124.777344 221.25 125.957031 221.546875 127.3125 C 221.351562 127.554688 221.15625 127.785156 220.949219 128.027344 C 220.8125 128.175781 220.660156 128.335938 220.535156 128.496094 C 220.375 128.703125 220.222656 128.921875 220.15625 129.1875 C 220.074219 129.53125 220.085938 129.886719 220.28125 130.195312 C 220.453125 130.484375 220.683594 130.703125 220.996094 130.851562 C 221.226562 130.957031 221.445312 130.988281 221.6875 130.988281 C 221.757812 130.988281 221.824219 130.988281 221.894531 130.976562 C 222.042969 130.964844 222.207031 130.910156 222.34375 130.875 C 222.4375 130.851562 222.539062 130.828125 222.632812 130.792969 C 222.828125 130.738281 223.023438 130.667969 223.21875 130.597656 C 223.378906 130.554688 223.542969 130.496094 223.703125 130.449219 C 223.726562 130.460938 223.738281 130.460938 223.761719 130.472656 C 223.804688 130.484375 223.839844 130.507812 223.886719 130.519531 C 223.921875 130.53125 223.945312 130.554688 223.980469 130.578125 C 224.023438 130.609375 224.058594 130.632812 224.09375 130.667969 C 224.128906 130.703125 224.164062 130.738281 224.1875 130.769531 C 224.300781 130.910156 224.394531 131.046875 224.496094 131.183594 C 224.703125 131.507812 224.890625 131.839844 225.0625 132.183594 C 225.210938 132.503906 225.351562 132.839844 225.464844 133.171875 C 225.523438 133.355469 225.570312 133.539062 225.613281 133.734375 C 225.636719 133.859375 225.648438 133.976562 225.660156 134.101562 C 225.660156 134.414062 225.660156 134.710938 225.636719 135.007812 Z M 193.730469 116.160156 C 193.753906 116.160156 193.765625 116.148438 193.789062 116.148438 C 193.777344 116.148438 193.753906 116.148438 193.730469 116.160156 Z M 193.730469 116.160156 " fill-opacity="1" fill-rule="nonzero"/><g clip-path="url(#417810fa47)"><path fill="#ff92a1" d="M 168.136719 163.484375 C 167.386719 163.484375 166.652344 163.21875 166.074219 162.609375 C 164.96875 161.449219 165.09375 159.832031 165.175781 158.292969 C 165.175781 158.152344 165.175781 158.003906 165.175781 157.867188 C 165.175781 156.546875 165.175781 155.226562 165.175781 153.914062 C 164.945312 149.4375 166.683594 145.117188 169.980469 142.074219 C 172.292969 139.84375 172.800781 139.535156 172.109375 136.238281 C 171.925781 133.941406 170.039062 128.738281 172.503906 127.453125 C 173.746094 126.902344 175.691406 126.523438 176.972656 127.0625 C 179.035156 128.429688 179.023438 134.285156 179.757812 137.054688 C 179.746094 137.089844 179.734375 137.113281 179.722656 137.144531 C 179.804688 137.558594 179.875 137.960938 179.933594 138.375 C 180.070312 138.570312 180.230469 138.753906 180.402344 138.925781 C 180.460938 139.097656 180.566406 139.269531 180.703125 139.410156 C 180.714844 139.421875 180.726562 139.433594 180.738281 139.441406 C 180.863281 139.59375 180.980469 139.730469 181.105469 139.867188 C 181.164062 140.027344 181.257812 140.179688 181.371094 140.292969 C 181.050781 140.222656 180.703125 140.179688 180.347656 140.167969 C 180.195312 140.15625 180.035156 140.132812 179.875 140.121094 C 179.21875 143.140625 175.691406 144.933594 173.710938 147.183594 C 171.960938 149.195312 171.605469 151.984375 171.394531 154.546875 C 171.304688 156.523438 171.246094 158.5 171.292969 160.472656 C 171.363281 162.242188 169.75 163.484375 168.136719 163.484375 Z M 249.308594 239.644531 C 247.753906 239.921875 246.324219 240.679688 244.910156 241.355469 C 241.671875 243.023438 238.953125 245.46875 236.328125 247.960938 C 237.238281 243.078125 238.203125 238.199219 238.988281 233.292969 C 239.046875 232.835938 239.113281 232.375 239.183594 231.914062 C 239.320312 231.523438 239.449219 231.125 239.585938 230.722656 C 239.585938 230.214844 239.585938 229.699219 239.574219 229.195312 C 239.945312 226.4375 240.152344 223.667969 239.5625 220.945312 C 239.449219 218.742188 237.28125 218.074219 235.660156 217.097656 C 232.410156 215.296875 229.253906 213.34375 226.039062 211.480469 C 225.660156 211.308594 225.269531 211.113281 224.878906 210.898438 C 224.808594 210.929688 224.738281 210.976562 224.683594 211.011719 C 224.53125 210.941406 224.394531 210.886719 224.242188 210.828125 C 224.152344 210.621094 224.035156 210.425781 223.910156 210.242188 C 223.738281 210.332031 223.554688 210.425781 223.378906 210.519531 C 223.367188 210.519531 223.355469 210.527344 223.34375 210.527344 C 222.273438 211.070312 221.214844 211.609375 220.132812 212.125 C 220.039062 212.171875 219.9375 212.21875 219.84375 212.261719 C 219.75 212.308594 219.648438 212.355469 219.554688 212.402344 C 219.476562 212.4375 219.40625 212.46875 219.324219 212.515625 C 219.257812 212.550781 219.1875 212.585938 219.117188 212.609375 C 219.0625 212.640625 218.992188 212.664062 218.933594 212.699219 C 218.851562 212.734375 218.773438 212.78125 218.691406 212.816406 C 218.632812 212.835938 218.578125 212.871094 218.519531 212.894531 C 218.460938 212.917969 218.414062 212.941406 218.359375 212.964844 C 217.757812 213.214844 217.160156 213.492188 216.550781 213.722656 C 216.019531 213.917969 215.488281 214.125 214.949219 214.285156 C 214.832031 214.445312 214.753906 214.617188 214.671875 214.789062 C 214.972656 215.007812 215.269531 215.226562 215.558594 215.457031 C 215.445312 215.503906 215.339844 215.546875 215.226562 215.582031 C 216.652344 216.707031 218.289062 217.546875 219.796875 218.558594 C 223.195312 220.578125 226.664062 222.578125 230.429688 223.785156 C 230.488281 223.816406 230.542969 223.851562 230.601562 223.886719 C 230.636719 223.875 230.671875 223.875 230.707031 223.863281 C 231.269531 224.035156 231.847656 224.195312 232.421875 224.335938 C 231.859375 225.988281 231.984375 227.871094 231.871094 229.605469 C 231.660156 232.167969 231.398438 234.707031 231.097656 237.257812 C 230.429688 242.230469 229.84375 247.203125 229.394531 252.199219 C 229.140625 254.667969 228.746094 257.136719 228.65625 259.621094 C 228.496094 260.5625 228.898438 261.605469 229.910156 261.824219 C 234.875 262.480469 238.621094 258.585938 241.765625 255.324219 C 242.582031 254.496094 243.296875 253.578125 243.941406 252.613281 C 244.585938 251.957031 245.195312 251.269531 245.773438 250.558594 C 247.605469 248.457031 249.515625 246.34375 250.644531 243.78125 C 251.371094 242.367188 251.429688 239.738281 249.308594 239.644531 Z M 200.859375 224.632812 C 200.722656 223.851562 200.585938 223.046875 200.355469 222.277344 C 200.007812 222.460938 199.664062 222.648438 199.316406 222.84375 C 198.164062 221.40625 195.644531 221.164062 194.457031 222.832031 C 193.8125 223.613281 193.800781 224.542969 193.871094 225.496094 C 193.753906 225.542969 193.640625 225.597656 193.535156 225.644531 C 193.179688 225.792969 192.820312 225.941406 192.453125 226.082031 C 192.578125 226.597656 192.742188 227.089844 192.925781 227.574219 C 193.640625 229.90625 194.203125 232.261719 194.746094 234.636719 C 195.332031 237.992188 195.863281 241.367188 196.910156 244.609375 C 196.335938 244.308594 195.746094 244.042969 195.160156 243.792969 C 192.140625 242.289062 189.214844 240.609375 186.242188 239.027344 C 181.464844 236.578125 176.777344 233.671875 171.59375 232.179688 C 167.03125 231.742188 167.5625 237.980469 169.148438 240.667969 C 171.121094 244.734375 174.113281 248.191406 177.179688 251.476562 C 178.492188 252.707031 180.4375 255.414062 182.085938 255.875 C 185.863281 256.035156 183.515625 250.546875 182.660156 248.652344 C 182.121094 247.582031 181.429688 246.59375 180.632812 245.710938 C 185.542969 248.488281 190.515625 251.292969 195.851562 253.140625 C 196.863281 253.417969 197.75 253.542969 198.535156 253.542969 C 206.746094 253.542969 203.222656 239.65625 202.417969 233.878906 C 201.933594 230.777344 201.484375 227.6875 200.859375 224.632812 Z M 200.859375 224.632812 " fill-opacity="1" fill-rule="nonzero"/></g><g clip-path="url(#a6d88e8e7c)"><path fill="#c06a31" d="M 158.609375 164.289062 C 158.425781 164.792969 158.242188 165.296875 158.046875 165.792969 C 158.195312 165.273438 158.378906 164.769531 158.609375 164.289062 Z M 168.230469 231.410156 C 168.414062 231.421875 168.597656 231.445312 168.78125 231.457031 C 168.609375 231.433594 168.425781 231.398438 168.25 231.363281 C 168.25 231.375 168.242188 231.386719 168.230469 231.410156 Z M 234.804688 183.054688 C 234.804688 183.054688 234.796875 183.054688 234.804688 183.054688 C 234.796875 183.042969 234.796875 183.054688 234.785156 183.054688 C 234.796875 183.054688 234.796875 183.054688 234.804688 183.054688 Z M 244.113281 170.707031 C 241.671875 176.027344 236.636719 180.882812 230.511719 181.035156 C 229.679688 180.976562 228.875 180.78125 228.101562 180.480469 C 229.371094 186.949219 232.226562 192.980469 234.933594 198.960938 C 235.589844 200.546875 237.042969 202.339844 235.878906 204.015625 C 233.699219 206.808594 230.140625 208.140625 227.167969 209.953125 C 218.796875 214.445312 209.742188 217.878906 201.207031 221.980469 C 196.507812 224.300781 191.898438 226.875 187.0625 228.894531 C 186.992188 228.917969 186.933594 228.941406 186.867188 228.976562 C 186.589844 229.101562 186.3125 229.226562 186.035156 229.355469 C 184.839844 229.8125 183.503906 230.789062 182.210938 230.746094 C 182.015625 230.710938 181.832031 230.6875 181.636719 230.640625 C 181.589844 230.640625 181.542969 230.640625 181.5 230.640625 C 181.269531 230.640625 181.027344 230.628906 180.773438 230.59375 C 174.183594 230.445312 167.652344 229.527344 161.261719 228 C 161.238281 228.023438 161.214844 228.035156 161.191406 228.054688 C 160.707031 227.90625 160.222656 227.769531 159.75 227.632812 C 159.714844 227.621094 159.671875 227.609375 159.636719 227.597656 C 158.691406 227.355469 157.746094 227.101562 156.8125 226.828125 C 154.175781 225.863281 150.421875 225.207031 148.484375 223.140625 C 147.691406 221.933594 148.542969 220.464844 148.496094 219.144531 C 148.691406 216.179688 149.097656 213.25 149.625 210.34375 C 149.128906 209.863281 148.726562 209.289062 148.472656 208.691406 C 146.90625 211.5625 143.914062 216.9375 139.960938 215.339844 C 137.910156 214.191406 138.523438 211.644531 139.269531 209.875 C 137.1875 211.894531 132.53125 214.296875 130.78125 210.976562 C 130.734375 210.976562 130.679688 210.964844 130.632812 210.964844 C 130.644531 210.90625 130.667969 210.839844 130.679688 210.78125 C 130.632812 210.691406 130.597656 210.597656 130.5625 210.496094 C 130.160156 208.289062 131.554688 206.175781 132.566406 204.304688 C 130.066406 205.898438 124.421875 207.613281 123.929688 203.210938 C 125.160156 198.054688 134.109375 192.921875 139.257812 193.484375 C 143.3125 189.246094 149.636719 183.800781 156.109375 182.03125 C 156.558594 180.160156 157.019531 178.289062 157.503906 176.425781 C 158.265625 173.40625 159.015625 170.375 159.75 167.34375 C 160.132812 166.011719 160.351562 164.550781 160.742188 163.195312 C 160.753906 163.136719 160.765625 163.09375 160.777344 163.035156 C 160.960938 162.21875 161.144531 161.394531 161.351562 160.578125 C 161.410156 160.015625 161.445312 159.453125 161.480469 158.890625 C 161.5 158.648438 161.5 158.394531 161.664062 158.1875 C 162.273438 157.488281 163.265625 157.28125 164.09375 156.9375 C 164.761719 156.625 165.429688 156.28125 166.179688 156.191406 C 167.019531 156.121094 167.042969 157.339844 166.214844 157.351562 C 166.214844 157.351562 166.214844 157.359375 166.203125 157.359375 C 166.9375 157.878906 166.222656 158.671875 165.695312 159.027344 C 165.636719 159.09375 165.578125 159.164062 165.511719 159.210938 C 166.191406 159.484375 166.882812 159.738281 167.570312 159.980469 C 167.746094 160.039062 167.859375 160.1875 167.917969 160.347656 C 168.183594 160.472656 168.4375 160.601562 168.691406 160.726562 C 168.953125 160.839844 169.21875 160.957031 169.484375 161.070312 C 171.40625 161.726562 173.308594 162.609375 175.09375 163.21875 C 175.601562 163.414062 176.128906 163.597656 176.671875 163.769531 C 177.488281 163.988281 178.308594 164.183594 179.136719 164.355469 C 179.148438 164.34375 179.171875 164.34375 179.183594 164.332031 C 179.414062 164.230469 179.65625 164.320312 179.886719 164.390625 C 180.449219 164.550781 181.015625 164.6875 181.578125 164.839844 C 181.867188 164.90625 182.15625 164.976562 182.441406 165.046875 C 182.878906 165.136719 183.316406 165.242188 183.757812 165.355469 C 184.710938 165.574219 185.679688 165.78125 186.636719 165.976562 C 186.890625 165.828125 187.132812 165.6875 187.382812 165.539062 C 188.097656 165.125 188.824219 164.710938 189.550781 164.320312 C 192.335938 162.414062 195.390625 160.851562 198.269531 159.105469 C 203.164062 156.246094 208.140625 153.523438 212.992188 150.609375 C 212.992188 150.585938 213 150.5625 213 150.539062 C 213 150.503906 213.011719 150.457031 213.011719 150.421875 C 213.011719 150.402344 213.023438 150.378906 213.023438 150.34375 C 213.035156 150.296875 213.035156 150.25 213.046875 150.207031 C 213.046875 150.183594 213.058594 150.148438 213.058594 150.125 C 213.058594 150.078125 213.070312 150.03125 213.070312 149.988281 C 213.070312 149.964844 213.070312 149.929688 213.082031 149.90625 C 213.082031 149.847656 213.09375 149.78125 213.09375 149.722656 C 213.105469 149.34375 213.046875 148.964844 212.96875 148.597656 C 212.886719 148.21875 212.792969 147.851562 212.714844 147.472656 C 212.597656 146.863281 212.507812 146.253906 212.449219 145.644531 C 212.449219 145.542969 212.449219 145.4375 212.449219 145.335938 C 212.460938 145.265625 212.472656 145.199219 212.484375 145.128906 C 213.140625 143.980469 214.109375 143.027344 215.269531 142.40625 C 215.511719 142.589844 215.765625 142.738281 216.03125 142.878906 C 216.664062 143.199219 217.34375 143.429688 218.035156 143.601562 C 218.140625 143.625 218.242188 143.648438 218.347656 143.671875 C 218.460938 143.441406 218.726562 143.28125 219.050781 143.371094 C 219.359375 143.476562 219.683594 143.566406 220.003906 143.660156 C 220.039062 143.496094 220.144531 143.359375 220.304688 143.289062 C 220.636719 143.140625 221.410156 143.40625 222.066406 143.636719 C 222.148438 143.625 222.238281 143.636719 222.320312 143.660156 C 223.230469 143.980469 224.140625 144.265625 225.027344 144.636719 C 225.523438 144.796875 225.855469 145.21875 225.84375 145.75 C 225.890625 146.070312 225.9375 146.390625 225.972656 146.714844 C 226.652344 148.769531 226.628906 151.90625 226.882812 154.203125 C 226.917969 154.628906 226.9375 155.0625 226.960938 155.488281 C 226.984375 155.511719 227.007812 155.535156 227.042969 155.558594 C 227.054688 155.570312 227.054688 155.570312 227.066406 155.570312 C 228.046875 154.214844 230.28125 154.339844 231.410156 155.648438 C 231.257812 153.5 231.410156 150.597656 233.515625 149.425781 C 235.40625 148.746094 236.660156 150.6875 237.179688 152.226562 C 237.765625 150.238281 238.191406 146.792969 239.816406 145.460938 C 241.660156 144.613281 242.894531 146.574219 243.15625 148.171875 C 243.203125 148.195312 243.25 148.21875 243.296875 148.242188 C 245.183594 146.175781 247.316406 147.917969 247.777344 150.25 C 249.113281 155.570312 246.324219 165.609375 244.113281 170.707031 Z M 227.054688 159.691406 C 227.125 163.898438 227.019531 168.113281 227.214844 172.316406 C 228.667969 172.085938 230.117188 171.878906 231.488281 171.351562 C 234.277344 170.042969 231.375 167.007812 230.304688 165.4375 C 229.4375 164.253906 228.585938 163.058594 227.90625 161.761719 C 227.617188 161.09375 227.308594 160.40625 227.054688 159.691406 Z M 227.054688 159.691406 " fill-opacity="1" fill-rule="nonzero"/></g><path fill="#000000" d="M 169.589844 215.351562 C 169.808594 214.746094 169.851562 213.996094 169.816406 213.226562 C 170.992188 205.453125 171.890625 197.640625 173.007812 189.855469 C 173.816406 184.238281 174.921875 178.667969 175.324219 173.003906 C 175.40625 170.777344 175.773438 168.480469 175.335938 166.285156 C 175.175781 165.632812 174.945312 164.976562 174.609375 164.390625 C 174.023438 165.089844 173.585938 165.929688 173.390625 166.8125 C 173.03125 169.675781 173.203125 172.601562 172.800781 175.472656 C 170.902344 188.511719 169.070312 201.570312 167.308594 214.617188 C 164.324219 215.730469 161.273438 217.121094 158.253906 218.179688 C 155.441406 219.351562 152.054688 219.855469 150.144531 222.441406 C 152.054688 223.09375 153.96875 222.277344 155.71875 221.554688 C 159.796875 220.097656 163.828125 218.535156 167.824219 216.859375 C 168.910156 218.558594 171.0625 220.246094 172.214844 221.542969 C 175.300781 224.472656 178.113281 227.941406 182.1875 229.550781 C 180.921875 227.722656 179.679688 225.828125 178.15625 224.1875 C 175.359375 221.1875 172.066406 218.613281 169.589844 215.351562 Z M 186.703125 166.136719 C 185.816406 167.941406 185.863281 169.960938 185.933594 171.914062 C 185.957031 174.003906 185.898438 176.082031 185.804688 178.160156 C 185.011719 189.152344 184.148438 200.132812 183.410156 211.136719 C 183.261719 215.226562 182.660156 219.339844 182.996094 223.417969 C 183.042969 224.933594 183.757812 226.390625 183.734375 227.882812 C 184.308594 227.296875 184.296875 226.355469 184.527344 225.597656 C 184.792969 224.347656 185 223.070312 185.113281 221.785156 C 185.300781 218.316406 185.484375 214.835938 185.691406 211.367188 C 186.417969 199.042969 187.707031 186.753906 188.226562 174.429688 C 188.085938 171.660156 188.894531 168.320312 186.703125 166.136719 Z M 214.832031 183.125 C 216.5625 183.273438 218.070312 182.320312 219.707031 181.941406 C 219.382812 184.054688 216.792969 184.835938 215.304688 186.054688 C 217.644531 186.03125 220.488281 185.800781 221.859375 183.605469 C 222.816406 182.183594 222.332031 179.863281 220.570312 179.367188 C 220.085938 179.230469 219.613281 179.242188 219.152344 179.332031 C 218.761719 179.484375 218.371094 179.621094 217.976562 179.769531 C 217.941406 179.78125 217.898438 179.792969 217.863281 179.816406 C 217.746094 179.863281 217.632812 179.894531 217.515625 179.941406 C 217.484375 179.953125 217.449219 179.964844 217.414062 179.976562 C 217.332031 180 217.253906 180.035156 217.171875 180.058594 C 217.125 180.070312 217.078125 180.089844 217.035156 180.101562 C 216.964844 180.125 216.894531 180.148438 216.824219 180.160156 C 216.78125 180.171875 216.722656 180.183594 216.675781 180.207031 C 216.574219 180.230469 216.480469 180.253906 216.375 180.277344 C 216.386719 180.277344 216.386719 180.277344 216.398438 180.285156 C 215.777344 180.480469 215.144531 180.574219 214.5 180.414062 C 213.394531 179.90625 213.1875 178.472656 212.5625 177.519531 C 212.265625 176.96875 211.941406 176.417969 211.550781 175.945312 C 211.042969 176.761719 210.699219 177.691406 210.6875 178.65625 C 210.652344 180.871094 212.53125 183.078125 214.832031 183.125 Z M 203.960938 194.507812 C 198.996094 194.691406 196.449219 193.988281 197.429688 188.441406 C 197.855469 186.972656 197.957031 186.9375 196.402344 187.523438 C 193.972656 188.957031 194.179688 192.691406 195.746094 194.714844 C 197.058594 196.21875 199.042969 196.941406 200.988281 197.113281 C 206.527344 197.734375 211.816406 195.308594 216.25 192.21875 C 219.371094 190.222656 222.148438 187.707031 224.140625 184.570312 C 217.054688 187.179688 211.816406 193.933594 203.960938 194.507812 Z M 201.726562 185.753906 C 200.804688 184.742188 199.824219 183.570312 198.417969 183.261719 C 194.824219 182.539062 190.976562 185.488281 192.1875 189.316406 C 194.042969 188.027344 195.285156 185.949219 197.542969 185.261719 C 198.9375 184.707031 200.367188 185.46875 201.726562 185.753906 Z M 208.773438 170.019531 C 208.761719 169.996094 208.761719 169.984375 208.75 169.960938 C 208.75 169.984375 208.75 169.996094 208.75 170.019531 C 208.761719 170.019531 208.773438 170.019531 208.773438 170.019531 Z M 205.734375 182.078125 C 209.800781 182.652344 209.003906 177.117188 208.867188 174.554688 C 208.707031 173.164062 208.773438 171.707031 208.222656 170.398438 C 207.691406 169.054688 205.953125 168.457031 204.742188 169.273438 C 202.425781 170.191406 202.933594 174.660156 203.0625 176.703125 C 203.316406 178.65625 203.511719 181.414062 205.734375 182.078125 Z M 217.679688 178.390625 C 218.957031 178.4375 219.992188 177.347656 220.085938 176.117188 C 220.351562 173.613281 218.886719 170.25 217.816406 167.984375 C 216.675781 165.710938 213.601562 166.378906 213.449219 168.894531 C 213.3125 171.878906 214.039062 175.003906 215.742188 177.496094 C 216.144531 178.160156 216.929688 178.472656 217.679688 178.390625 Z M 148.40625 238.0625 C 153.277344 237.761719 158.253906 237.808594 162.847656 235.957031 C 156.019531 234.144531 148.910156 235.601562 141.964844 235.832031 C 137.96875 236.132812 133.949219 236.304688 129.964844 236.707031 C 128.789062 236.945312 127.660156 237.453125 126.75 238.210938 C 127.84375 238.863281 129.113281 239.230469 130.390625 239.253906 C 136.378906 238.886719 142.390625 238.417969 148.40625 238.0625 Z M 142.632812 241.519531 C 140.988281 241.507812 139.375 242.046875 138.050781 243.035156 C 138.984375 243.675781 140.113281 244.054688 141.253906 244.171875 C 146.390625 244.066406 151.515625 243.4375 156.652344 243.148438 C 160.085938 243.011719 163.496094 242.355469 166.683594 241.058594 C 165.164062 240.714844 163.597656 240.484375 162.042969 240.371094 C 155.570312 240.230469 149.097656 241.195312 142.632812 241.519531 Z M 142.589844 247.765625 C 138.246094 248.238281 133.902344 248.8125 129.570312 249.351562 C 128.246094 249.605469 127.003906 250.292969 126.070312 251.257812 C 127.085938 251.730469 128.203125 251.96875 129.308594 251.96875 C 132.105469 251.796875 134.882812 251.292969 137.667969 251.003906 C 141.746094 250.589844 145.847656 249.984375 149.578125 248.179688 C 147.289062 247.789062 144.925781 247.628906 142.589844 247.765625 Z M 142.589844 247.765625 " fill-opacity="1" fill-rule="nonzero"/><path fill="#6bca22" d="M 188.25 143.039062 C 188.25 143.050781 188.257812 143.050781 188.257812 143.0625 C 188.25 143.050781 188.25 143.039062 188.25 143.039062 C 188.238281 143.039062 188.25 143.039062 188.25 143.039062 Z M 226.6875 138.097656 C 225.753906 141.636719 219.773438 148.265625 216.089844 144.773438 C 216.308594 146.082031 216.550781 147.402344 216.792969 148.722656 C 215.972656 149.171875 215.15625 149.632812 214.347656 150.089844 C 214.128906 148.632812 213.890625 147.171875 213.578125 145.738281 C 213.140625 143.394531 212.75 141.039062 212.046875 138.765625 C 211.988281 138.824219 211.929688 138.878906 211.851562 138.925781 C 211.46875 139.191406 210.953125 139.179688 210.558594 138.914062 C 209.753906 138.363281 209.386719 137.363281 208.957031 136.527344 C 208.417969 135.355469 207.921875 134.101562 208.082031 132.78125 C 207.023438 131.058594 209.085938 129.851562 209.960938 131.300781 C 210.214844 131.851562 210.445312 132.414062 210.675781 132.976562 C 211.238281 133.527344 211.609375 134.308594 211.871094 135.148438 C 213.023438 134.734375 213.933594 136.203125 214.339844 137.285156 C 214.984375 138.132812 215.605469 138.996094 216.144531 139.914062 C 216.699219 140.796875 217.160156 141.730469 217.722656 142.601562 C 218.117188 143.394531 218.921875 143.085938 219.53125 142.738281 C 221.339844 141.832031 222.769531 140.304688 223.65625 138.488281 C 224.441406 136.800781 225.476562 134.078125 223.609375 132.757812 C 221.824219 132.585938 220.144531 133.550781 218.496094 134.113281 C 217.195312 134.6875 216.019531 132.941406 217.042969 131.964844 C 218.484375 130.4375 220.753906 128.566406 219.992188 126.210938 C 217.863281 126.542969 215.90625 127.910156 214.234375 129.230469 C 213.578125 130.058594 212.484375 131.195312 211.445312 130.1875 C 210.640625 129.394531 211.25 128.371094 211.953125 127.773438 C 212.449219 127.0625 212.957031 126.347656 213.335938 125.558594 C 214.097656 124.179688 215.226562 119.734375 212.828125 119.585938 C 210.292969 119.917969 208.222656 122.132812 207.371094 124.453125 C 206.757812 125.992188 207.140625 127.636719 207.171875 129.230469 C 207.207031 129.933594 207.230469 130.632812 207.183594 131.324219 C 206.792969 131.171875 206.414062 130.957031 206.078125 130.691406 C 206.25 131.804688 206.390625 132.917969 206.5625 134.035156 C 206.125 133.390625 205.6875 132.757812 205.238281 132.125 C 204.972656 131.734375 204.71875 131.355469 204.464844 130.964844 C 204.304688 130.714844 204.097656 130.507812 203.832031 130.382812 C 203.707031 129.277344 203.601562 128.175781 203.40625 127.097656 C 203.324219 126.636719 203.246094 126.175781 203.140625 125.71875 C 203.140625 125.71875 203.140625 125.707031 203.140625 125.707031 C 203.039062 125.257812 202.933594 124.808594 202.855469 124.363281 C 202.300781 122.605469 202.4375 120.03125 200.628906 119.042969 C 199.273438 118.664062 197.441406 119.835938 197.1875 121.203125 C 196.992188 122.789062 194.527344 122.628906 194.550781 121.019531 C 194.617188 120.238281 194.617188 119.46875 194.363281 118.710938 C 193.074219 119.605469 192.152344 120.972656 191.578125 122.421875 C 194.121094 121.191406 196.597656 123.628906 195.332031 126.175781 C 194.226562 128.648438 189.652344 130.632812 188.675781 127.0625 C 186.679688 128.625 184.710938 130.726562 184.527344 133.355469 C 184.445312 134.792969 184.675781 136.847656 186.40625 137.125 C 187.9375 137.25 189.480469 137.296875 190.976562 137.664062 C 190.160156 139.019531 188.605469 139.832031 187.027344 139.824219 C 186.820312 139.789062 186.625 139.753906 186.417969 139.71875 C 185.933594 139.617188 185.460938 139.476562 184.988281 139.328125 C 184.851562 139.269531 184.699219 139.214844 184.5625 139.15625 C 184.078125 138.800781 183.59375 138.433594 183.121094 138.042969 C 181.785156 136.285156 181.507812 133.550781 182.167969 131.402344 C 183.144531 128.234375 185.679688 125.730469 188.433594 123.996094 C 188.5 120.789062 193.707031 112.519531 196.714844 117.503906 C 202.046875 114.09375 204.765625 118.414062 205.03125 123.074219 C 207.980469 115.875 218.886719 113.566406 216.480469 124.660156 C 221.546875 121.664062 224.277344 125.488281 221.917969 130.21875 C 226.675781 129.117188 228.277344 134.527344 226.6875 138.097656 Z M 191.070312 125.546875 C 191.105469 125.832031 191.164062 126.109375 191.253906 126.382812 C 191.957031 126.039062 192.855469 125.589844 193.027344 124.753906 C 192.347656 124.867188 191.703125 125.257812 191.070312 125.546875 Z M 191.070312 125.546875 " fill-opacity="1" fill-rule="nonzero"/><path fill="#ffc145" d="M 215.050781 149.828125 C 214.210938 146.757812 213.082031 143.738281 212.125 140.777344 C 210.097656 135.664062 207.265625 128.164062 200.550781 128.84375 C 196.023438 129.394531 192.347656 132.792969 190 136.515625 C 189.296875 137.800781 188.351562 139.28125 187.925781 140.796875 C 187.464844 140.5 186.96875 140.246094 186.441406 140.027344 C 182.671875 138.558594 178.480469 139.925781 175.484375 142.464844 C 175.210938 142.773438 174.957031 143.097656 174.703125 143.429688 C 174.3125 143.96875 173.941406 144.519531 173.609375 145.09375 C 173.609375 145.105469 173.597656 145.105469 173.597656 145.117188 C 173.597656 145.105469 173.609375 145.105469 173.609375 145.09375 C 173.332031 145.601562 173.054688 146.105469 172.777344 146.597656 C 172.765625 146.632812 172.742188 146.667969 172.722656 146.703125 C 172.59375 146.945312 172.492188 147.195312 172.375 147.449219 C 172.226562 147.78125 172.066406 148.105469 171.914062 148.4375 C 171.730469 148.90625 171.558594 149.390625 171.375 149.859375 C 171.210938 150.285156 171.085938 150.710938 170.957031 151.148438 C 170.832031 151.582031 170.683594 152.007812 170.578125 152.445312 C 170.453125 152.960938 170.324219 153.46875 170.210938 153.984375 C 170.152344 154.292969 170.09375 154.605469 170.039062 154.914062 C 169.980469 155.214844 169.910156 155.5 169.875 155.800781 C 169.796875 156.394531 169.703125 156.992188 169.632812 157.589844 C 169.507812 158.75 169.378906 159.910156 169.265625 161.070312 C 169.347656 161.09375 169.414062 161.128906 169.496094 161.152344 C 169.738281 161.230469 169.980469 161.324219 170.210938 161.402344 C 170.324219 161.4375 170.429688 161.472656 170.542969 161.507812 C 171.039062 161.65625 171.546875 161.816406 172.042969 161.96875 C 173.917969 161.394531 175.636719 160.359375 177.488281 159.691406 C 180.128906 158.832031 182.925781 158.234375 185.714844 158.304688 C 184.515625 160.117188 182.074219 160.886719 180.183594 161.851562 C 179.113281 162.3125 178.078125 162.804688 177.039062 163.355469 C 178.332031 163.703125 179.621094 164.046875 180.898438 164.425781 C 181.601562 164.148438 182.292969 163.828125 182.960938 163.472656 C 184.816406 162.484375 186.980469 161.507812 188.050781 159.613281 C 188.617188 158.453125 188.5 156.773438 187.246094 156.121094 C 185.171875 155.074219 182.582031 155.949219 180.382812 156.191406 C 178.308594 156.707031 175.300781 157.394531 173.042969 158.703125 C 173.148438 158.050781 173.25 157.382812 173.378906 156.730469 C 173.378906 156.730469 173.378906 156.71875 173.390625 156.707031 C 175.417969 156.328125 177.398438 155.671875 179.296875 154.824219 C 181.300781 153.9375 183.59375 153.089844 184.90625 151.261719 C 186.519531 147.714844 183.054688 146.933594 180.277344 147.597656 C 178.042969 147.929688 175.785156 148.460938 173.640625 149.273438 C 174.253906 147.988281 175.011719 146.769531 175.96875 145.703125 C 178.226562 143.140625 181.925781 141.222656 185.34375 142.441406 C 186.382812 142.867188 187.234375 143.519531 187.9375 144.3125 C 187.9375 144.429688 187.996094 144.496094 188.097656 144.507812 C 188.8125 145.359375 189.386719 146.359375 189.871094 147.414062 C 189.859375 147.425781 189.847656 147.4375 189.828125 147.449219 C 189.847656 147.449219 189.859375 147.449219 189.882812 147.449219 C 190.5625 148.929688 191.070312 150.527344 191.589844 151.953125 C 192.554688 155.050781 193.210938 158.246094 194.25 161.324219 C 194.582031 161.164062 194.90625 160.992188 195.238281 160.828125 C 195.597656 160.632812 195.953125 160.449219 196.300781 160.253906 C 196.160156 158.878906 195.886719 157.523438 195.550781 156.167969 C 197.738281 155.960938 199.882812 155.339844 201.769531 154.203125 C 203.292969 153.191406 205.042969 152.101562 205.617188 150.273438 C 206.539062 147.082031 203.324219 146.78125 201.035156 147.472656 C 198.660156 148.09375 195.632812 148.828125 193.949219 150.722656 C 193.878906 150.515625 193.824219 150.296875 193.753906 150.089844 C 193.410156 149.136719 193.050781 148.136719 192.625 147.148438 C 195.34375 146.679688 197.945312 145.601562 200.019531 143.726562 C 201.355469 142.671875 202.472656 140.765625 201.332031 139.167969 C 199.375 137.101562 193.085938 139.558594 190.886719 140.707031 C 190.839844 140.730469 190.792969 140.753906 190.757812 140.777344 C 192.5 136.652344 195.6875 132.667969 200.179688 131.550781 C 201.621094 131.277344 202.832031 131.550781 203.878906 132.195312 C 203.84375 132.207031 203.808594 132.230469 203.773438 132.242188 C 203.636719 132.320312 203.199219 132.78125 203.535156 132.734375 C 204.269531 132.863281 204.398438 133.804688 204.753906 134.355469 C 205.25 135.160156 205.664062 135.984375 206.042969 136.835938 C 206.101562 137.273438 206.207031 137.699219 206.34375 138.121094 C 206.757812 139.019531 207.171875 139.914062 207.609375 140.808594 C 208.1875 142.175781 208.878906 143.496094 209.570312 144.808594 C 210.042969 145.773438 210.523438 146.726562 210.996094 147.691406 C 211.054688 147.09375 211.089844 146.496094 211.089844 145.898438 C 211.632812 147.679688 212.101562 149.480469 212.574219 151.273438 C 213.40625 150.792969 214.222656 150.308594 215.050781 149.828125 Z M 171.109375 160.199219 C 171.121094 160.210938 171.121094 160.210938 171.132812 160.222656 C 171.121094 160.234375 171.109375 160.242188 171.109375 160.253906 C 171.109375 160.234375 171.109375 160.210938 171.109375 160.199219 Z M 182.535156 150.03125 C 180.542969 151.757812 177.925781 152.445312 175.554688 153.46875 C 175.082031 153.675781 174.609375 153.890625 174.148438 154.109375 C 174.472656 153.640625 174.402344 152.972656 173.953125 152.582031 C 173.78125 152.433594 173.5625 152.34375 173.34375 152.320312 C 176.246094 151.042969 179.320312 150.160156 182.535156 150.03125 Z M 202.945312 149.816406 C 201.945312 151.171875 200.320312 151.90625 198.984375 152.871094 C 197.773438 153.730469 196.566406 154.511719 195.34375 155.328125 C 195.089844 154.410156 194.824219 153.5 194.539062 152.59375 C 197.371094 151.777344 199.917969 150.03125 202.945312 149.816406 Z M 192.542969 142.832031 C 194.550781 141.796875 196.75 141.246094 198.996094 141.015625 C 197.003906 143.015625 194.433594 144.3125 192.039062 145.851562 C 191.667969 145.105469 191.253906 144.371094 190.792969 143.691406 C 191.394531 143.453125 191.980469 143.152344 192.542969 142.832031 Z M 173.632812 145.058594 C 173.640625 145.035156 173.664062 145.003906 173.675781 144.980469 C 173.675781 144.992188 173.664062 144.992188 173.664062 145.003906 C 173.664062 145.003906 173.664062 145.015625 173.652344 145.015625 C 173.652344 145.023438 173.640625 145.023438 173.640625 145.035156 C 173.640625 145.035156 173.632812 145.046875 173.632812 145.058594 Z M 173.664062 144.992188 C 173.664062 144.980469 173.675781 144.980469 173.675781 144.980469 C 173.675781 144.980469 173.664062 144.992188 173.664062 144.992188 Z M 173.664062 144.992188 " fill-opacity="1" fill-rule="nonzero"/><path fill="#000000" d="M 228.726562 176.128906 C 228.714844 177.335938 228.609375 178.542969 228.539062 179.746094 C 227.179688 178.023438 225.765625 174.417969 227.480469 172.570312 C 228.496094 173.464844 228.792969 174.832031 228.726562 176.128906 Z M 226.894531 155.890625 C 225.707031 156.742188 226.480469 158.488281 227.007812 159.519531 C 227.367188 158.417969 227.917969 156.808594 226.894531 155.890625 Z M 234.714844 159.832031 C 234.460938 157.707031 233 155.429688 230.671875 155.316406 C 230.992188 157.164062 232.066406 158.714844 232.90625 160.347656 C 233.367188 161.242188 234.804688 160.828125 234.714844 159.832031 Z M 237.558594 151.941406 C 237.5 151.789062 237.445312 151.628906 237.386719 151.480469 C 237.28125 151.972656 237.191406 152.46875 237.109375 152.960938 C 236.777344 153.925781 236.695312 154.949219 236.8125 155.960938 C 236.800781 156.765625 236.753906 157.625 237.042969 158.394531 C 237.433594 159.53125 239.21875 159.277344 239.253906 158.074219 C 239.183594 155.902344 239.136719 153.523438 237.652344 151.777344 C 237.617188 151.835938 237.59375 151.894531 237.558594 151.941406 Z M 244.113281 155.960938 C 243.90625 154.167969 244.136719 152.363281 243.894531 150.597656 C 243.792969 149.941406 243.664062 149.285156 243.492188 148.65625 C 242.628906 149.253906 242.085938 150.207031 241.84375 151.203125 C 241.546875 152.824219 241.753906 154.5 241.820312 156.132812 C 241.972656 157.636719 244.195312 157.464844 244.113281 155.960938 Z M 155.441406 183.160156 C 158.125 182.378906 160.960938 182.355469 163.691406 181.757812 C 164.691406 181.492188 165.660156 181.089844 166.535156 180.5625 C 165.683594 179.894531 164.601562 179.550781 163.519531 179.550781 C 160.546875 179.757812 157.457031 180.90625 155.441406 183.160156 Z M 165.324219 188.742188 C 165.257812 188.683594 163.703125 189.761719 163.527344 189.855469 C 161.972656 190.660156 160.683594 191.601562 159.335938 192.714844 C 158.011719 193.851562 156.789062 195.148438 155.996094 196.710938 C 155.824219 197.035156 155.695312 197.378906 155.59375 197.722656 C 155.695312 197.929688 155.789062 198.136719 155.859375 198.332031 C 156.941406 201.25 157.425781 204.488281 156.871094 207.566406 C 156.273438 210.988281 153.851562 214.148438 150.144531 212.171875 C 148.785156 211.332031 147.5625 209.964844 147.484375 208.3125 C 147.449219 207.667969 147.574219 207.027344 147.828125 206.441406 C 148.222656 206.808594 148.578125 207.234375 148.921875 207.632812 C 149.671875 208.414062 150.226562 209.402344 151.101562 210.046875 C 152.65625 211.148438 153.761719 209.933594 154.246094 208.449219 C 155.199219 205.910156 154.742188 203.179688 154.257812 200.59375 C 153.945312 198.5625 153.738281 196.503906 153.070312 194.550781 C 153.347656 194.714844 153.632812 194.953125 153.910156 195.253906 C 154.015625 195.035156 154.152344 194.828125 154.246094 194.65625 C 154.566406 194.105469 154.949219 193.566406 155.351562 193.070312 C 157 190.992188 159.542969 188.578125 162.285156 188.121094 C 163.320312 187.949219 164.4375 188.109375 165.324219 188.742188 Z M 138.984375 210.035156 C 140.515625 208.199219 142.253906 206.507812 143.695312 204.601562 C 144.269531 203.785156 144.570312 202.867188 145.03125 201.984375 C 141.425781 201.582031 139.269531 207.117188 138.984375 210.035156 Z M 132.09375 204.761719 C 133.464844 203.589844 134.800781 202.363281 136.253906 201.28125 C 137.613281 200.398438 138.695312 199.191406 139.605469 197.859375 C 135.6875 196.917969 132.957031 201.546875 132.09375 204.761719 Z M 206.65625 146.621094 C 207.058594 148.90625 205.054688 150.722656 203.625 152.25 C 203.371094 152.503906 203.105469 152.742188 202.832031 152.984375 C 201.886719 153.996094 200.90625 154.972656 199.800781 155.820312 C 198.984375 156.5 198.144531 157.144531 197.289062 157.773438 C 197.394531 159.738281 197.199219 161.703125 196.585938 163.621094 C 195.585938 160.460938 195.042969 157.1875 194.339844 153.960938 C 193.652344 151.214844 192.707031 148.527344 191.371094 146.023438 C 190.667969 144.761719 189.792969 143.613281 189.054688 142.359375 C 188.847656 142.085938 188.605469 141.832031 188.375 141.589844 C 189.386719 141.144531 190.527344 141.488281 191.359375 142.140625 C 191.425781 142.085938 191.484375 142.039062 191.542969 141.992188 C 192.523438 141.199219 193.558594 140.488281 194.617188 139.8125 C 194.8125 139.683594 195.007812 139.558594 195.207031 139.433594 C 197.253906 138.03125 199.824219 136.984375 201.839844 136.8125 C 204.097656 136.917969 204.246094 139.386719 203.292969 140.960938 C 202.667969 142.027344 201.828125 143.085938 200.871094 144.039062 C 200.871094 144.039062 200.871094 144.039062 200.859375 144.050781 C 199.996094 144.96875 199.042969 145.796875 198.0625 146.585938 C 197.335938 147.171875 196.609375 147.722656 195.851562 148.277344 C 195.632812 148.402344 195.378906 148.644531 195.113281 148.839844 C 195.285156 149.285156 195.457031 149.746094 195.621094 150.195312 C 195.710938 150.125 195.792969 150.042969 195.886719 149.976562 C 196.609375 149.390625 197.382812 148.839844 198.199219 148.367188 C 198.996094 147.804688 199.859375 147.324219 200.652344 146.875 C 202.324219 146.09375 205.710938 144.015625 206.65625 146.621094 Z M 204.269531 147.78125 C 202.761719 148.277344 201.34375 149.035156 200.03125 149.90625 C 198.84375 150.78125 197.683594 151.722656 196.347656 152.332031 C 196.632812 153.316406 196.863281 154.316406 197.035156 155.328125 C 198.488281 154.144531 199.710938 152.664062 201.136719 151.445312 C 202.300781 150.355469 203.511719 149.21875 204.269531 147.78125 Z M 201.550781 139.15625 C 199.742188 139.441406 198.097656 140.339844 196.585938 141.328125 C 195.34375 142.210938 194.167969 143.222656 192.761719 143.820312 C 193.132812 144.429688 193.453125 145.070312 193.789062 145.679688 C 193.914062 145.945312 194.03125 146.207031 194.144531 146.472656 C 195.207031 145.804688 196.21875 145.046875 197.210938 144.277344 C 197.359375 144.152344 197.519531 144.027344 197.671875 143.910156 C 199.109375 142.464844 200.894531 141.144531 201.550781 139.15625 Z M 205.78125 123.902344 C 203.085938 121.15625 200.859375 125.855469 201.691406 128.265625 C 202.65625 126.464844 203.960938 124.914062 205.78125 123.902344 Z M 173.90625 134.5625 C 175.4375 134.722656 177.109375 134.089844 177.960938 132.78125 C 178.203125 132.402344 178.386719 131.988281 178.492188 131.5625 C 177.789062 132.046875 176.984375 132.414062 176.128906 132.539062 C 174.96875 132.65625 173.792969 132.515625 172.628906 132.746094 C 172.410156 132.757812 172.191406 132.769531 171.972656 132.804688 C 172.007812 133.082031 172.097656 133.34375 172.25 133.574219 C 172.605469 134.125 173.261719 134.457031 173.90625 134.5625 Z M 233.644531 254.449219 C 233.644531 254.449219 233.65625 254.449219 233.644531 254.449219 C 235.335938 253.324219 235.695312 250.695312 236.085938 248.835938 C 234.53125 250.027344 232.144531 252.429688 233.644531 254.449219 Z M 176.707031 239.335938 C 176.742188 242.171875 179.644531 244.445312 181.429688 246.433594 C 181.027344 243.652344 179.964844 239.828125 176.707031 239.335938 Z M 183.433594 146.484375 C 180.371094 145.796875 177.121094 146.105469 174.058594 146.667969 C 173.710938 146.757812 173.214844 146.863281 172.675781 146.988281 C 172.652344 147.046875 172.628906 147.09375 172.59375 147.148438 C 172.46875 147.414062 172.328125 147.679688 172.214844 147.953125 C 172.054688 148.320312 171.890625 148.6875 171.730469 149.058594 C 171.648438 149.253906 171.570312 149.457031 171.488281 149.652344 C 174.945312 148.414062 178.746094 148.046875 182.386719 148.484375 C 179.691406 150.03125 176.546875 150.609375 173.527344 151.238281 C 172.582031 151.421875 171.636719 151.582031 170.683594 151.746094 C 170.671875 151.777344 170.660156 151.8125 170.648438 151.847656 C 170.496094 152.398438 170.359375 152.949219 170.210938 153.492188 C 170.175781 153.628906 170.152344 153.753906 170.117188 153.890625 C 170.257812 153.9375 170.417969 153.949219 170.589844 153.949219 C 171.375 153.949219 172.375 153.582031 173.054688 153.535156 C 175.046875 153.179688 177.027344 152.765625 178.964844 152.179688 C 179.710938 151.984375 180.4375 151.746094 181.164062 151.46875 C 182.304688 150.996094 183.535156 150.5625 184.355469 149.597656 C 185.484375 148.503906 184.769531 146.945312 183.433594 146.484375 Z M 171.328125 155.765625 C 170.902344 155.949219 170.222656 156.121094 169.621094 156.375 C 169.597656 156.546875 169.578125 156.707031 169.554688 156.878906 C 169.484375 157.535156 169.414062 158.175781 169.359375 158.832031 C 169.785156 158.808594 170.234375 158.554688 170.671875 158.324219 C 171.269531 158.085938 171.878906 157.867188 172.503906 157.695312 C 175.578125 156.914062 179.574219 156.476562 182.605469 157.554688 C 179.195312 159.691406 173.871094 159.324219 169.933594 159.429688 C 169.667969 159.417969 169.460938 159.484375 169.289062 159.589844 C 169.289062 159.589844 169.289062 159.601562 169.289062 159.601562 C 169.289062 160.222656 169.289062 160.828125 169.300781 161.449219 C 169.449219 161.542969 169.621094 161.597656 169.839844 161.609375 C 170.152344 161.609375 170.476562 161.609375 170.785156 161.609375 C 173.839844 161.597656 176.925781 161.566406 179.921875 160.921875 C 182.003906 160.496094 186.105469 159.128906 184.527344 156.339844 C 182.179688 153.835938 174.378906 154.765625 171.328125 155.765625 Z M 171.328125 155.765625 " fill-opacity="1" fill-rule="nonzero"/><path fill="#c06a31" d="M 222.320312 146.851562 C 217.804688 151.582031 211.527344 153.972656 206.148438 157.554688 C 205.882812 157.71875 205.617188 157.878906 205.351562 158.039062 C 204.257812 158.832031 203.164062 159.648438 202.082031 160.449219 C 200.34375 161.785156 198.683594 163.300781 196.542969 163.941406 C 196.542969 163.863281 196.554688 163.792969 196.566406 163.722656 C 194.699219 164.953125 192.796875 166.367188 190.449219 166.273438 C 191.164062 164.207031 193.167969 163.183594 194.894531 162.058594 C 197.429688 160.382812 199.960938 158.703125 202.542969 157.097656 C 203.015625 156.796875 203.476562 156.511719 203.949219 156.210938 C 206.769531 154.167969 209.730469 152.34375 212.738281 150.574219 C 214.601562 149.414062 216.539062 148.320312 218.644531 147.667969 C 219.40625 147.425781 220.1875 147.230469 220.972656 147.160156 C 220.972656 147.160156 220.960938 147.171875 220.960938 147.171875 C 221.410156 147.046875 221.859375 146.945312 222.320312 146.851562 Z M 185.34375 166.195312 C 178.804688 163.484375 171.855469 161.726562 165.488281 158.648438 C 164.105469 157.292969 162.355469 158.945312 163.703125 160.210938 C 164.75 160.992188 165.984375 161.484375 167.179688 161.976562 C 172.917969 164.230469 178.792969 166.078125 184.515625 168.351562 C 185.945312 168.847656 186.738281 166.769531 185.34375 166.195312 Z M 185.34375 166.195312 " fill-opacity="1" fill-rule="nonzero"/></svg>